<?xml version="1.0" encoding="utf-8"?>
<svg width="800px" height="600px"
     xmlns="http://www.w3.org/2000/svg"
     xmlns:xhtml="http://www.w3.org/1999/xhtml"
     xmlns:xlink="http://www.w3.org/1999/xlink"
     xmlns:a="http://www.adobe.com/svg10-extensions" a:timeline="independent"
     onload="top.load(evt)">

  <defs>
   
        
    <clipPath id="gameareaclip">
      <rect x="20" y="20" width="600" height="560"/>
    </clipPath>
    
<g id="bullet">
  <circle cx="5" cy="5" r="5" style="fill:red"/>
  <circle cx="6" cy="3" r="1" style="fill:pink"/>
</g>

    <pattern id="background_pattern" x="0" y="0" width="20" height="20" patternUnits="userSpaceOnUse">
      <rect width="20" height="20" style="fill:yellow"/>
      <circle cx="10" cy="10" r="8" style="fill:lightyellow"/>
    </pattern>
    
    <radialGradient id="player_color">
      <stop offset="0.0" style="stop-color:yellow;stop-opacity:1"/>
      <stop offset="0.8" style="stop-color:yellow;stop-opacity:1"/>
      <stop offset="1.0" style="stop-color:orange;stop-opacity:1"/>
    </radialGradient>

    <g id = "sweet">
	<rect x="0" y="10" width="40" height="20"
		 style="fill:rgb(255,0,0);stroke:rgb(0,0,0);stroke-width:1" rx="9.5"
		ry="9.5" transform="rotate(-45 20 20)"/>
	<rect x="0" y="10" width="40" height="20"
		 style="fill:rgb(255,0,0);stroke:rgb(0,0,0);stroke-width:1" rx="9.5"
		ry="9.5" transform="rotate(45 20 20)"/>
    </g>

    <g id="monster">
 <path	d="M0 30 L0 0 L5 3 L10 0 L15 3 L20 0 L25 3 L30 0 L35 3 L40 0 L40 40 L35 33 L30 40 	L25 33 L20 40 L15 33 L10 40 L5 33 L0 40 L0 30"
	 style="fill:rgb(128,128,128);fill-opacity:0.5;stroke:rgb(0,0,0);stroke-width:2"/>
	<ellipse cx="29" cy="10.5" rx="5" ry="4.5"
		 style="fill:rgb(36,36,24);stroke:rgb(0,0,0);stroke-width:1"/>
	<ellipse cx="35" cy="25" rx="2" ry="1"
		 style="fill:rgb(255,0,0);stroke:rgb(0,0,0);stroke-width:1">
		<animate attributeName="ry" attributeType="XML" dur="5s" values="1; 4; 1"
repeatCount="indefinite"/>
	 </ellipse>
</g>
  </defs>
  

  <rect width="100%" height="100%" style="fill:url(#background_pattern);stroke:orange;stroke-width:4" />

  <rect x="20" y="20" width="600" height="560" style="fill:black;stroke:red;stroke-width:5" />
  

  
<!-- Score -->
	<g transform="translate(640, 120)">
 	 <text x="70" y="0"
 	  style="fill:orange;font-size:25px;font-weight:bold;text-anchor:middle">
  	  Score:
	  </text>
	  <rect x="0" y="10" width="140" height="35" style="fill:white" />
	  <text id="score" x="70" y="36"
	   style="fill:orange;font-size:25px;text-anchor:middle">0</text>
	</g>


<!-- Bullet remain -->
	<g transform="translate(640, 190)">
	 	 <text x="70" y="0"
	 	  style="fill:orange;font-size:25px;font-weight:bold;text-anchor:middle">
	  	  Bullet Remain:
		  </text>
		  <rect x="0" y="10" width="140" height="35" style="fill:white" />
		  <text id="bulletRemain" x="70" y="36"
		   style="fill:orange;font-size:25px;text-anchor:middle">8</text>
	</g>

<!-- HP -->
	<g transform="translate(640, 260)">
	 	 <text x="70" y="0"
	 	  style="fill:orange;font-size:25px;font-weight:bold;text-anchor:middle">
	  	  HP Remain:
		  </text>
		  <rect x="0" y="10" width="140" height="35" style="fill:white" />
		  <text id="HPRemain" x="70" y="36"
		   style="fill:orange;font-size:25px;text-anchor:middle">2</text>
	</g>

<!-- Level -->
	<g transform="translate(640, 330)">
	 	 <text x="70" y="0"
	 	  style="fill:orange;font-size:25px;font-weight:bold;text-anchor:middle">
	  	  Level:
		  </text>
		  <rect x="0" y="10" width="140" height="35" style="fill:white" />
		  <text id="Level" x="70" y="36"
		   style="fill:orange;font-size:25px;text-anchor:middle">1</text>
	</g>

<!-- Time -->
	<g transform="translate(640, 400)">
	 	 <text x="70" y="0"
	 	  style="fill:orange;font-size:25px;font-weight:bold;text-anchor:middle">
	  	  Time:
		  </text>
		  <rect x="0" y="10" width="140" height="35" style="fill:white" />
		  <text id="TimeRemain" x="70" y="36"
		   style="fill:orange;font-size:25px;text-anchor:middle">60</text>
	</g>
	
	<g id="startpage" transform="translate(0,0)" width="800" height="600" style = " visibility : visible">
		<rect x="0" y="0" width="800" height="600" style="fill:rgb(255,255,0)" />
		<text x="400px" y="50px" style="fill:rgb(255,0,255);font-size:30;text-anchor:middle">Goods Hunting</text>
		<text x="400" y="130" style="fill:rgb(255,0,0);font-size:30;text-anchor:middle">You are a paper hunter. You need to collect goods</text>
		<text x="400" y="170" style="fill:rgb(255,0,0);font-size:30;text-anchor:middle"> as many as possible. Use the N key to go left,</text>
		<text x="400" y="210" style="fill:rgb(255,0,0);font-size:30;text-anchor:middle"> the M key to go right and the Z key to jump. </text>
		<text x="400" y="250" style="fill:rgb(255,0,0);font-size:30;text-anchor:middle"> Dummy papers are going to stop you on the way. </text>
		<text x="400" y="290" style="fill:rgb(255,0,0);font-size:30;text-anchor:middle"> Use the spacebar to shoot and kill them. Pick up </text>
		<text x="400" y="330" style="fill:rgb(255,0,0);font-size:30;text-anchor:middle"> the goods amd go to the exit quickly. You can earn </text>
		<text x="400" y="370" style="fill:rgb(255,0,0);font-size:30;text-anchor:middle"> double points in zoom mode, which is much harder.</text>
		<text x="700" y="50" style="fill:rgb(255,0,0);font-size:30;text-anchor:middle"> MAR Chun Sum</text>

		<g onclick="top.zoomMode()" >
  			<rect x="500" y="450" width="150" height="40"
         			 style="fill:white;stroke:red;stroke-width:2" />
   			<text x="575" y="480"
          			style="fill:red;font-size:25px;text-anchor:middle">Zoom Mode</text>
  		</g>
  		<g onclick="top.normalMode()" >
		  	<rect x="200" y="450" width="150" height="40"
		         	style="fill:white;stroke:red;stroke-width:2" />
		   	<text x="275" y="480"
		          	style="fill:red;font-size:25px;text-anchor:middle">Normal Mode</text>
  		</g>
	</g>

  <g style="clip-path:url(#gameareaclip)">
    <g transform="translate(20,20)">
      <g id="gamearea" transform="translate(0,0)" width="600" height="560" style = " visibility : hidden">

        <rect x="0" y="0" width="600" height="560" style="fill:white" />

        
        <g id="platforms">

          <!-- Add your platforms here -->
	<rect x="0" y="60" width="40" height="20"
		 style="fill:rgb(64,255,64);stroke:rgb(0,0,0);stroke-width:1" rx="5.79165"
		ry="5.79165"/>
	<rect x="20" y="80" width="40" height="20"
		 style="fill:rgb(64,255,64);stroke:rgb(0,0,0);stroke-width:1" rx="5.79165"
		ry="5.79165"/>
	<rect x="40" y="100" width="40" height="20"
		 style="fill:rgb(64,255,64);stroke:rgb(0,0,0);stroke-width:1" rx="5.79165"
		ry="5.79165"/>
	<rect x="60" y="120" width="40" height="20"
		 style="fill:rgb(64,255,64);stroke:rgb(0,0,0);stroke-width:1" rx="5.79165"
		ry="5.79165"/>
	<rect x="200" y="80" width="200" height="20"
		 style="fill:rgb(64,255,64);stroke:rgb(0,0,0);stroke-width:1" rx="5.79165"
		ry="5.79165"/>
	<rect x="80" y="140" width="60" height="20"
		 style="fill:rgb(64,255,64);stroke:rgb(0,0,0);stroke-width:1" rx="5.79165"
		ry="5.79165" transform="translate(0 0)"/>
	<rect x="150" y="200" width="200" height="20"
		 style="fill:rgb(64,255,64);stroke:rgb(0,0,0);stroke-width:1" rx="5.79165"
		ry="5.79165"/>
	<rect x="0" y="540" width="600" height="20"
		 style="fill:rgb(64,255,64);stroke:rgb(0,0,0);stroke-width:1" rx="5.79165"
		ry="5.79165"/>
	<rect x="0" y="520" width="60" height="20"
		 style="fill:rgb(64,255,64);stroke:rgb(0,0,0);stroke-width:1" rx="5.79165"
		ry="5.79165"/>
	<rect x="260" y="520" width="60" height="20"
		 style="fill:rgb(64,255,64);stroke:rgb(0,0,0);stroke-width:1" rx="5.79165"
		ry="5.79165"/>
	<rect x="280" y="500" width="20" height="20"
		 style="fill:rgb(64,255,64);stroke:rgb(0,0,0);stroke-width:1" rx="5.79165"
		ry="5.79165"/>
	<rect x="0" y="500" width="40" height="20"
		 style="fill:rgb(64,255,64);stroke:rgb(0,0,0);stroke-width:1" rx="5.79165"
		ry="5.79165"/>
	<rect x="360" y="460" width="20" height="20"
		 style="fill:rgb(64,255,64);stroke:rgb(0,0,0);stroke-width:1" rx="5.79165"
		ry="5.79165"/>
	<rect x="380" y="440" width="20" height="20"
		 style="fill:rgb(64,255,64);stroke:rgb(0,0,0);stroke-width:1" rx="5.79165"
		ry="5.79165"/>
	<rect x="400" y="420" width="60" height="20"
		 style="fill:rgb(64,255,64);stroke:rgb(0,0,0);stroke-width:1" rx="5.79165"
		ry="5.79165"/>
	<rect x="40" y="380" width="20" height="40"
		 style="fill:rgb(64,255,64);stroke:rgb(0,0,0);stroke-width:1" rx="5.79165"
		ry="5.79165"/>
	<rect x="0" y="360" width="40" height="20"
		 style="fill:rgb(64,255,64);stroke:rgb(0,0,0);stroke-width:1" rx="5.79165"
		ry="5.79165"/>
	<rect x="20" y="380" width="20" height="20"
		 style="fill:rgb(64,255,64);stroke:rgb(0,0,0);stroke-width:1" rx="5.79165"
		ry="5.79165"/>
	<rect x="0" y="220" width="40" height="20"
		 style="fill:rgb(64,255,64);stroke:rgb(0,0,0);stroke-width:1" rx="5.79165"
		ry="5.79165"/>
	<rect x="20" y="240" width="40" height="20"
		 style="fill:rgb(64,255,64);stroke:rgb(0,0,0);stroke-width:1" rx="5.79165"
		ry="5.79165"/>
	<rect x="40" y="260" width="40" height="20"
		 style="fill:rgb(64,255,64);stroke:rgb(0,0,0);stroke-width:1" rx="5.79165"
		ry="5.79165"/>
	<rect x="60" y="280" width="40" height="20"
		 style="fill:rgb(64,255,64);stroke:rgb(0,0,0);stroke-width:1" rx="5.79165"
		ry="5.79165"/>
	<rect x="80" y="140" width="60" height="20"
		 style="fill:rgb(64,255,64);stroke:rgb(0,0,0);stroke-width:1" rx="5.79165"
		ry="5.79165"/>
	<rect x="120" y="480" width="20" height="20"
		 style="fill:rgb(64,255,64);stroke:rgb(0,0,0);stroke-width:1" rx="5.79165"
		ry="5.79165"/>
	<rect x="140" y="460" width="20" height="20"
		 style="fill:rgb(64,255,64);stroke:rgb(0,0,0);stroke-width:1" rx="5.79165"
		ry="5.79165"/>
	<rect x="160" y="440" width="80" height="20"
		 style="fill:rgb(64,255,64);stroke:rgb(0,0,0);stroke-width:1" rx="5.79165"
		ry="5.79165"/>
	<rect x="520" y="500" width="20" height="40"
		 style="fill:rgb(64,255,64);stroke:rgb(0,0,0);stroke-width:1" rx="5.79165"
		ry="5.79165"/>
	<rect x="540" y="480" width="20" height="60"
		 style="fill:rgb(64,255,64);stroke:rgb(0,0,0);stroke-width:1" rx="5.79165"
		ry="5.79165"/>
	<rect x="560" y="460" width="20" height="80"
		 style="fill:rgb(64,255,64);stroke:rgb(0,0,0);stroke-width:1" rx="5.79165"
		ry="5.79165"/>
	<rect x="580" y="440" width="20" height="100"
		 style="fill:rgb(64,255,64);stroke:rgb(0,0,0);stroke-width:1" rx="5.79165"
		ry="5.79165"/>
	<rect id="verticalPlatform" x="500" y="140" width="80" height="20"
		 style="fill:rgb(64,255,64);stroke:rgb(0,0,0);stroke-width:1" rx="5.79165"
		ry="5.79165"/>
	<rect id="horizontalPlatform" x="100" y="280" width="60" height="20"
		 style="fill:rgb(64,255,64);stroke:rgb(0,0,0);stroke-width:1" rx="5.79165"
		ry="5.79165"/>
	
	
    </g>

	<g id="sweets"/>
    <g id="monsters"/>
        
<!-- door -->
	<g>
		<rect id="door" x="260" y="40" width="40" height="40"

			style="fill:rgb(111,162,247);stroke:rgb(0,0,0);stroke-width:1"/>

		<text x="269px" y="56px"
			transform="translate(269.53 56.12) scale(1.88424 1.47297) translate(-269.53 -56.12) translate(-1.32679 -1.01835)"	
				style="fill:rgb(0,0,0);font-family:Arial;font-size:10">Go</text>

		<polygon points="280,60 282.887,65 277.113,65"
			transform="matrix(1.73205 0 0 1 -204.974 0) translate(280 60) scale(1 1.2) translate(-280 -60)"		
				style="fill:rgb(255,0,0);stroke:rgb(0,0,0);stroke-width:1"/>

		<polygon points="280,60 282.887,65 277.113,65"
			transform="matrix(1.73205 0 0 1.2 -117.974 14) translate(-53.1162 -14.1667) translate(277.113 65) scale(1.66661 1.33333) translate(-277.113 -65) translate(0.57737 0.208333)"
				style="fill:rgb(255,0,0);stroke:rgb(0,0,0);stroke-width:1"/>
	</g>

         <g>
			<text id="nameBar" x="0" y="0"
				style="fill:orange;font-size:10px;text-anchor:middle">Anonymous</text>
        </g>
        <g id="player">
			<rect id="changeAppearance" x="0" y="0" width="40" height="40"
				style="fill:rgb(255,255,0);stroke:rgb(0,0,0);stroke-width:1"/>
			<ellipse cx="30" cy="10" rx="5" ry="4"
				style="fill:rgb(36,36,24);stroke:rgb(0,0,0);stroke-width:1"/>
			<path  d="M39.5 26.8333 L33.8333 22.8333 L25.5 26.8333 L27.5 34.5 L36.1667 36.8333"
				style="fill:none;stroke:rgb(0,0,0);stroke-width:1"/>
        </g>
        <g id="bullets"/>
    </g>
      
      <g id="highscoretable"  style = " visibility : hidden" transform="translate(40,40)">
        <rect width="520" height="480"
         style="fill:white;stroke:red;stroke-width:2"/>
        <text x="260" y="40"
         style="fill:red;font-size:30px;font-weight:bold;text-anchor:middle">
          High Score Table
        </text>
        <text id="highscoretext" y="45"
         style="font-size: 20px;font-weight:bold"/>
        <g onclick="top.again()" transform="translate(230,420)">
			<rect x="0" y="0" width="140" height="40"
				style="fill:white;stroke:red;stroke-width:2" />
			<text x="60" y="20"
				style="fill:red;font-size:22px;text-anchor:middle">Again??</text>
		</g>
      </g>
    </g>
  </g>
</svg>
