<?xml version="1.0" encoding="utf-8"?>
<svg width="800px" height="600px"
     xmlns="http://www.w3.org/2000/svg"
     xmlns:xhtml="http://www.w3.org/1999/xhtml"
     xmlns:xlink="http://www.w3.org/1999/xlink"
     xmlns:a="http://www.adobe.com/svg10-extensions" a:timeline="independent"
     xmlns:sketch="http://www.bohemiancoding.com/sketch/ns"
     onload="top.load(evt)">

	<defs>
		<clipPath id="gameareaclip">
			<rect x="800" y="600" width="0" height="0">
				<animate id="effect" attributeName="x" attributeType="XML" values="400;0"
					begin="norm.click;zoom.click" dur="1s" fill="freeze"/>
				<animate attributeName="y" attributeType="XML" values="300;0"
					begin="effect.begin" dur="1s" fill="freeze"/>
				<animate attributeName="width" attributeType="XML" values="0;800"
					begin="effect.begin" dur="1s" fill="freeze"/>
				<animate attributeName="height" attributeType="XML" values="0;600"
					begin="effect.begin" dur="1s" fill="freeze"/>
			</rect>
		</clipPath>

        <radialGradient cx="37.8027344%" cy="33.9770508%" fx="37.8027344%" fy="33.9770508%" r="87.2604251%" id="radialGradient-1">
            <stop stop-color="#4400DF" offset="0%"></stop>
            <stop stop-color="#FF0050" offset="100%"></stop>
        </radialGradient>
        <linearGradient x1="50%" y1="0%" x2="50%" y2="100%" id="linearGradient-2">
            <stop stop-color="#FF2C4E" offset="0%"></stop>
            <stop stop-color="#B30000" offset="100%"></stop>
        </linearGradient>

        <linearGradient x1="50%" y1="0%" x2="50%" y2="100%" id="linearGradient-1">
            <stop stop-color="#FFDA4E" offset="0%"></stop>
            <stop stop-color="#FF5900" offset="100%"></stop>
        </linearGradient>
		<g id="bullet">
	        <rect id="Rectangle-1" stroke="#979797" fill="url(#radialGradient-1)" sketch:type="MSShapeGroup" x="0" y="0" width="8" height="8"></rect>
		</g>

		<!-- 
		'########:::'######::::::'########:::::'###::::'########:'########:'########:'########::'##::: ##:
		 ##.... ##:'##... ##::::: ##.... ##:::'## ##:::... ##..::... ##..:: ##.....:: ##.... ##: ###:: ##:
		 ##:::: ##: ##:::..:::::: ##:::: ##::'##:. ##::::: ##::::::: ##:::: ##::::::: ##:::: ##: ####: ##:
		 ########:: ##::'####:::: ########::'##:::. ##:::: ##::::::: ##:::: ######::: ########:: ## ## ##:
		 ##.... ##: ##::: ##::::: ##.....::: #########:::: ##::::::: ##:::: ##...:::: ##.. ##::: ##. ####:
		 ##:::: ##: ##::: ##::::: ##:::::::: ##.... ##:::: ##::::::: ##:::: ##::::::: ##::. ##:: ##:. ###:
		 ########::. ######:::::: ##:::::::: ##:::: ##:::: ##::::::: ##:::: ########: ##:::. ##: ##::. ##:
		........::::......:::::::..:::::::::..:::::..:::::..::::::::..:::::........::..:::::..::..::::..: -->:

	    <pattern id="background_pattern" x="0" y="0" width="20" height="20" patternUnits="userSpaceOnUse">
	      <rect width="20" height="20" fill="#FF9500"/>
	      <circle cx="10" cy="10" r="8" fill="#FF5E3A"/>
	    </pattern>

	    <radialGradient id="player_color">
	      <stop offset="0.0" style="stop-color:yellow;stop-opacity:1"/>
	      <stop offset="0.8" style="stop-color:yellow;stop-opacity:1"/>
	      <stop offset="1.0" style="stop-color:orange;stop-opacity:1"/>
	    </radialGradient>


		<!--
		:'######::'##:::::'##:'########:'########:'########:
		'##... ##: ##:'##: ##: ##.....:: ##.....::... ##..::
		 ##:::..:: ##: ##: ##: ##::::::: ##:::::::::: ##::::
		. ######:: ##: ##: ##: ######::: ######:::::: ##::::
		:..... ##: ##: ##: ##: ##...:::: ##...::::::: ##::::
		'##::: ##: ##: ##: ##: ##::::::: ##:::::::::: ##::::
		. ######::. ###. ###:: ########: ########:::: ##::::
		:......::::...::...:::........::........:::::..:::::
		 -->
	    <g id = "sweet">
            <circle id="Oval-1" fill="#8B572A" sketch:type="MSShapeGroup" cx="20" cy="20" r="20"></circle>
            <circle id="Oval-2" fill="#000000" sketch:type="MSShapeGroup" cx="10" cy="24" r="1"></circle>
            <circle id="Oval-2" fill="#000000" sketch:type="MSShapeGroup" cx="11" cy="10" r="1"></circle>
            <circle id="Oval-2" fill="#000000" sketch:type="MSShapeGroup" cx="14" cy="23" r="1"></circle>
            <circle id="Oval-2" fill="#000000" sketch:type="MSShapeGroup" cx="15" cy="15" r="1"></circle>
            <circle id="Oval-2" fill="#000000" sketch:type="MSShapeGroup" cx="17" cy="11" r="1"></circle>
            <circle id="Oval-2" fill="#000000" sketch:type="MSShapeGroup" cx="25" cy="26" r="1"></circle>
            <circle id="Oval-2" fill="#000000" sketch:type="MSShapeGroup" cx="26" cy="11" r="1"></circle>
            <circle id="Oval-2" fill="#000000" sketch:type="MSShapeGroup" cx="29" cy="24" r="1"></circle>
            <circle id="Oval-2" fill="#000000" sketch:type="MSShapeGroup" cx="30" cy="17" r="1"></circle>
            <circle id="Oval-2" fill="#000000" sketch:type="MSShapeGroup" cx="32" cy="12" r="1"></circle>
            <circle id="Oval-2" fill="#000000" sketch:type="MSShapeGroup" cx="16" cy="34" r="1"></circle>
            <circle id="Oval-2" fill="#000000" sketch:type="MSShapeGroup" cx="17" cy="19" r="1"></circle>
            <circle id="Oval-2" fill="#000000" sketch:type="MSShapeGroup" cx="21" cy="32" r="1"></circle>
            <circle id="Oval-2" fill="#000000" sketch:type="MSShapeGroup" cx="22" cy="25" r="1"></circle>
            <circle id="Oval-2" fill="#000000" sketch:type="MSShapeGroup" cx="24" cy="20" r="1"></circle>
			
	    </g>

		<!-- 
		'##::::'##::'#######::'##::: ##::'######::'########:'########:'########::
		 ###::'###:'##.... ##: ###:: ##:'##... ##:... ##..:: ##.....:: ##.... ##:
		 ####'####: ##:::: ##: ####: ##: ##:::..::::: ##:::: ##::::::: ##:::: ##:
		 ## ### ##: ##:::: ##: ## ## ##:. ######::::: ##:::: ######::: ########::
		 ##. #: ##: ##:::: ##: ##. ####::..... ##:::: ##:::: ##...:::: ##.. ##:::
		 ##:.:: ##: ##:::: ##: ##:. ###:'##::: ##:::: ##:::: ##::::::: ##::. ##::
		 ##:::: ##:. #######:: ##::. ##:. ######::::: ##:::: ########: ##:::. ##:
		..:::::..:::.......:::..::::..:::......::::::..:::::........::..:::::..::
		 -->
		<g id="monster">
		    <g id="Oval-1-+-Path-1" sketch:type="MSLayerGroup" transform="translate(21.000000, 21.000000) scale(-1, 1) translate(-21.000000, -21.000000) translate(1.000000, 1.000000)">
		        <circle id="Oval-1" stroke="#979797" fill="url(#radialGradient-1)" sketch:type="MSShapeGroup" cx="20" cy="20" r="20"></circle>
		        <path d="M5,15.4698663 L14.9872459,9 C14.9872459,9 17.9999999,13.2309855 18,15.0648521 C18,16.8987187 5,15.4698663 5,15.4698663 Z" id="Path-1" fill="url(#linearGradient-2)" sketch:type="MSShapeGroup"></path>
		    </g>
		</g>
	</defs>

	<!-- 
	:'######::'########::::'###::::'########::'########::::'########:::::'###:::::'######:::'########:
	'##... ##:... ##..::::'## ##::: ##.... ##:... ##..::::: ##.... ##:::'## ##:::'##... ##:: ##.....::
	 ##:::..::::: ##:::::'##:. ##:: ##:::: ##:::: ##::::::: ##:::: ##::'##:. ##:: ##:::..::: ##:::::::
	. ######::::: ##::::'##:::. ##: ########::::: ##::::::: ########::'##:::. ##: ##::'####: ######:::
	:..... ##:::: ##:::: #########: ##.. ##:::::: ##::::::: ##.....::: #########: ##::: ##:: ##...::::
	'##::: ##:::: ##:::: ##.... ##: ##::. ##::::: ##::::::: ##:::::::: ##.... ##: ##::: ##:: ##:::::::
	. ######::::: ##:::: ##:::: ##: ##:::. ##:::: ##::::::: ##:::::::: ##:::: ##:. ######::: ########:
	:......::::::..:::::..:::::..::..:::::..:::::..::::::::..:::::::::..:::::..:::......::::........::
	 -->

	<!-- Start page -->
	<g id="startpage" transform="translate(0,0)" width="800" height="600">
        <rect id="Rectangle-1" stroke="#979797" fill="url(#linearGradient-1)" sketch:type="MSShapeGroup" x="0" y="0" width="800" height="600"></rect>
        <text id="You-are-super-biscui" fill="#FFFFFF" sketch:type="MSTextLayer" font-family="Helvetica Neue" font-size="24" font-weight="normal">
            <tspan x="66.5" y="213" fill="#FFFFFF">You are super biscuits lover, and some monsters are stealing </tspan>
            <tspan x="66.5" y="242" fill="#FFFFFF">your biscuits!!! </tspan>
            <tspan x="66.5" y="271" fill="#FFFFFF">Try to kill all of them and get back as many as biscuit you can!</tspan>
            <tspan x="66.5" y="300" fill="#FFFFFF">Use N key to go left. M key to go right </tspan>
            <tspan x="66.5" y="329" fill="#FFFFFF">Use spacebar to shoot the monster</tspan>
            <tspan x="66.5" y="358" fill="#FFFFFF">Eat all the biscuits and go to the exit quickly.</tspan>
            <tspan x="66.5" y="387" fill="#FFFFFF">Double point will be given in the zoom mode. which is harder.</tspan>
            <tspan x="66.5" y="416" fill="#FFFFFF"></tspan>
        </text>

		<!-- 
		'########::'##::::'##:'########:'########::'#######::'##::: ##::'######::
		 ##.... ##: ##:::: ##:... ##..::... ##..::'##.... ##: ###:: ##:'##... ##:
		 ##:::: ##: ##:::: ##:::: ##::::::: ##:::: ##:::: ##: ####: ##: ##:::..::
		 ########:: ##:::: ##:::: ##::::::: ##:::: ##:::: ##: ## ## ##:. ######::
		 ##.... ##: ##:::: ##:::: ##::::::: ##:::: ##:::: ##: ##. ####::..... ##:
		 ##:::: ##: ##:::: ##:::: ##::::::: ##:::: ##:::: ##: ##:. ###:'##::: ##:
		 ########::. #######::::: ##::::::: ##::::. #######:: ##::. ##:. ######::
		........::::.......::::::..::::::::..::::::.......:::..::::..:::......:::
		-->
		<g id="zoom" onclick="top.zoomMode()" >
	        <rect id="Rectangle-1" stroke="#4990E2" stroke-width="2" fill="#FFFFFF" sketch:type="MSShapeGroup" x="500" y="450" width="150" height="40" rx="8"></rect>
	        <text id="Zoom-Mode" fill="#4990E2" sketch:type="MSTextLayer" font-family="Helvetica Neue" font-size="18" font-weight="normal">
	            <tspan x="526" y="477" fill="#000000">
	            	Zoom Mode
	            </tspan>
	        </text>
  		</g>

  		<g id="norm" onclick="top.normalMode()" >
	        <rect id="Rectangle-1" stroke="#4990E2" stroke-width="2" fill="#FFFFFF" sketch:type="MSShapeGroup" x="200" y="450" width="150" height="40" rx="8"></rect>
	        <text id="Normal-Mode" fill="#4990E2" sketch:type="MSTextLayer" font-family="Helvetica Neue" font-size="18" font-weight="normal">
	            <tspan x="220" y="477" fill="#000000">
	            	Normal Mode
	            </tspan>
	        </text>
  		</g>
	</g>

	<g id="game" style="clip-path:url(#gameareaclip)">

		<rect width="800" height="600" style="fill:url(#background_pattern);stroke:orange;stroke-width:4" rx="8"/>
		<rect x="20" y="20" width="600" height="560" style="fill:black;stroke:red;stroke-width:5" rx="5"/>

		<!-- 
		:'######:::'######:::'#######::'########::'########:
		'##... ##:'##... ##:'##.... ##: ##.... ##: ##.....::
		 ##:::..:: ##:::..:: ##:::: ##: ##:::: ##: ##:::::::
		. ######:: ##::::::: ##:::: ##: ########:: ######:::
		:..... ##: ##::::::: ##:::: ##: ##.. ##::: ##...::::
		'##::: ##: ##::: ##: ##:::: ##: ##::. ##:: ##:::::::
		. ######::. ######::. #######:: ##:::. ##: ########:
		:......::::......::::.......:::..:::::..::........::
		-->

		<!-- Score -->
		<g transform="translate(640, 120)">
			<text x="70" y="0" style="fill:white;font-size:25px;font-weight:bold;text-anchor:middle" font-family="Helvetica Neue">
				Score:
			</text>
			<rect x="0" y="10" width="140" height="35" style="fill:white" />
			<text id="score" x="70" y="36" style="fill:orange;font-size:25px;text-anchor:middle" font-family="Helvetica Neue">
				0
			</text>
		</g>


		<!-- Bullet remain -->
		<g transform="translate(640, 190)">
			<text x="70" y="0" style="fill:white;font-size:25px;font-weight:bold;text-anchor:middle" font-family="Helvetica Neue">
				Bullet Remain:
			</text>
			<rect x="0" y="10" width="140" height="35" style="fill:white" />
			<text id="bulletRemain" x="70" y="36" style="fill:orange;font-size:25px;text-anchor:middle" font-family="Helvetica Neue">
				8
			</text>
		</g>

		<!-- HP -->
		<g transform="translate(640, 260)">
			<text x="70" y="0" style="fill:white;font-size:25px;font-weight:bold;text-anchor:middle" font-family="Helvetica Neue">
				HP Remain:
			</text>
			<rect x="0" y="10" width="140" height="35" style="fill:white" />
			<text id="HPRemain" x="70" y="36" style="fill:orange;font-size:25px;text-anchor:middle" font-family="Helvetica Neue">
				2
			</text>
		</g>

		<!-- Level -->
		<g transform="translate(640, 330)">
			<text x="70" y="0" style="fill:white;font-size:25px;font-weight:bold;text-anchor:middle" font-family="Helvetica Neue">
				Level:
			</text>
			<rect x="0" y="10" width="140" height="35" style="fill:white" />
			<text id="Level" x="70" y="36" style="fill:orange;font-size:25px;text-anchor:middle" font-family="Helvetica Neue">
				1
			</text>
		</g>

		<!-- Time -->
		<g transform="translate(640, 400)">
			<text x="70" y="0" style="fill:white;font-size:25px;font-weight:bold;text-anchor:middle" font-family="Helvetica Neue">
				Time:
			</text>
			<rect x="0" y="10" width="140" height="35" style="fill:white" />
			<text id="TimeRemain" x="70" y="36" style="fill:orange;font-size:25px;text-anchor:middle" font-family="Helvetica Neue">
				60
			</text>
		</g>


		<!-- 
		:'######::::::'###::::'##::::'##:'########:::::::'###::::'########::'########::::'###::::
		'##... ##::::'## ##::: ###::'###: ##.....:::::::'## ##::: ##.... ##: ##.....::::'## ##:::
		 ##:::..::::'##:. ##:: ####'####: ##:::::::::::'##:. ##:: ##:::: ##: ##::::::::'##:. ##::
		 ##::'####:'##:::. ##: ## ### ##: ######::::::'##:::. ##: ########:: ######:::'##:::. ##:
		 ##::: ##:: #########: ##. #: ##: ##...::::::: #########: ##.. ##::: ##...:::: #########:
		 ##::: ##:: ##.... ##: ##:.:: ##: ##:::::::::: ##.... ##: ##::. ##:: ##::::::: ##.... ##:
		. ######::: ##:::: ##: ##:::: ##: ########:::: ##:::: ##: ##:::. ##: ########: ##:::: ##:
		:......::::..:::::..::..:::::..::........:::::..:::::..::..:::::..::........::..:::::..::
		 -->
		<!-- Move Area -->
		<g transform="translate(20,20)">
			<g id="gamearea" transform="translate(0,0)" width="600" height="560">
			<rect x="0" y="0" width="600" height="560" style="fill:white" rx="8" />


				<g id="platforms">

					<!-- Add your platforms here -->
			        <rect id="Rectangle-1" fill="#8B572A" sketch:type="MSShapeGroup" x="0" y="500" width="600" height="60"></rect>
			        <rect id="Rectangle-2" fill="#8B572A" sketch:type="MSShapeGroup" x="0" y="460" width="160" height="100"></rect>
			        <rect id="Rectangle-3" fill="#8B572A" sketch:type="MSShapeGroup" x="0" y="420" width="120" height="80"></rect>
			        <rect id="Rectangle-4" fill="#8B572A" sketch:type="MSShapeGroup" x="440" y="460" width="160" height="100"></rect>
			        <rect id="Rectangle-5" fill="#8B572A" sketch:type="MSShapeGroup" x="481" y="420" width="120" height="80"></rect>
			        <rect id="Rectangle-6" fill="#4A4A4A" sketch:type="MSShapeGroup" x="200" y="381" width="201" height="20"></rect>
			        <rect id="Rectangle-7" fill="#4A4A4A" sketch:type="MSShapeGroup" x="200" y="300" width="201" height="21"></rect>
			        <rect id="Rectangle-8" fill="#4A4A4A" sketch:type="MSShapeGroup" x="200" y="220" width="201" height="20"></rect>
			        <rect id="Rectangle-9" fill="#4A4A4A" sketch:type="MSShapeGroup" x="200" y="140" width="201" height="20"></rect>
			        <rect id="Rectangle-10" fill="#4A4A4A" sketch:type="MSShapeGroup" x="200" y="60" width="201" height="20"></rect>
			        <rect id="Rectangle-11" fill="#B8E986" sketch:type="MSShapeGroup" x="0" y="60" width="100" height="20"></rect>
			        <rect id="Rectangle-12" fill="#B8E986" sketch:type="MSShapeGroup" x="0" y="220" width="100" height="20"></rect>
			        <rect id="Rectangle-13" fill="#B8E986" sketch:type="MSShapeGroup" x="500" y="60" width="100" height="20"></rect>
			        <rect id="Rectangle-14" fill="#B8E986" sketch:type="MSShapeGroup" x="500" y="140" width="100" height="20"></rect>
			        <rect id="Rectangle-15" fill="#B8E986" sketch:type="MSShapeGroup" x="500" y="220" width="100" height="20"></rect>

					<rect id="verticalPlatform-1" x="440" y="140" width="40" height="20"
					style="fill:rgb(64,255,64);stroke:rgb(0,0,0);stroke-width:1" rx="5.79165"
					ry="5.79165"/>
					<rect id="verticalPlatform-2" x="140" y="400" width="40" height="20"
					style="fill:rgb(64,255,64);stroke:rgb(0,0,0);stroke-width:1" rx="5.79165"
					ry="5.79165"/>
				</g>

				<!-- Player -->
				<text id="nameBar" x="0" y="0" style="fill:orange;font-size:10px;text-anchor:middle">Anonymous</text>
		        <g id="player">
			        <path d="M33.4968464,34.3091483 C29.9454156,37.8258665 25.0454258,40 19.6341463,40 C8.7905062,40 0,31.2695532 0,20.5 C0,9.73044685 8.7905062,1 19.6341463,1 C29.5248743,1 37.7074617,8.26344738 39.0692119,17.7125769 C37.6678862,17.7101255 29.2484962,17.8546726 25.9941482,21.6142006 C22.4390244,25.7211947 28.7392169,32.9500589 32.4007337,33.6893151 C32.9122274,33.7925851 33.2632569,34.0175381 33.4968464,34.3091483 Z" id="Oval-1" stroke="#F8E81C" fill="#F8E81C" sketch:type="MSShapeGroup"></path>
			        <circle id="Oval-2" stroke="#979797" fill="#000000" sketch:type="MSShapeGroup" cx="27.5" cy="12.5" r="5.5"></circle>
			    </g>

				<!-- door -->
				<g>

		            <rect id="door" fill="#0BD318" sketch:type="MSShapeGroup" x="560" y="20" width="40" height="40"></rect>
		            <text id="EXIT" sketch:type="MSTextLayer" font-family="Helvetica" font-size="19.0344828" font-weight="260" fill="#FFFFFF">
		                <tspan x="560" y="50">EXIT</tspan>
		            </text>


				</g>
				<g>
<!-- 				<rect id="door" x="260" y="40" width="40" height="40" style="fill:rgb(111,162,247);stroke:rgb(0,0,0);stroke-width:1"/>

					<text x="269px" y="56px" transform="translate(269.53 56.12) scale(1.88424 1.47297) translate(-269.53 -56.12) translate(-1.32679 -1.01835)" style="fill:rgb(0,0,0);font-family:Arial;font-size:10">
						Go
					</text>

					<polygon points="280,60 282.887,65 277.113,65" transform="matrix(1.73205 0 0 1 -204.974 0) translate(280 60) scale(1 1.2) translate(-280 -60)" style="fill:rgb(255,0,0);stroke:rgb(0,0,0);stroke-width:1"/>

					<polygon points="280,60 282.887,65 277.113,65" transform="matrix(1.73205 0 0 1.2 -117.974 14) translate(-53.1162 -14.1667) translate(277.113 65) scale(1.66661 1.33333) translate(-277.113 -65) translate(0.57737 0.208333)" style="fill:rgb(255,0,0);stroke:rgb(0,0,0);stroke-width:1"/>
 -->				</g>
	
			    <g id="portal-1" stroke="none" stroke-width="1" fill="none" fill-rule="evenodd" sketch:type="MSPage" transform="translate(200, 15)">
			        <ellipse id="Oval-2" stroke="#4990E2" stroke-width="2" fill="#000000" sketch:type="MSShapeGroup" cx="8.5" cy="22" rx="7.5" ry="21"></ellipse>
			        <g id="Oval-1-+-Path-1-+-Path-3" sketch:type="MSLayerGroup" transform="translate(2.000000, 7.000000)" stroke="#979797" fill="#A95D5D">
			            <circle id="Oval-1" sketch:type="MSShapeGroup" cx="10" cy="5" r="5"></circle>
			            <path d="M10.2774066,16.3069166 L7.35980717,19.1111603 L0,19.085213 L0.00927990359,16.1515554 L5.68436276,16.1515554 L9.67725218,12 L10.5548403,20.811348 L10.9800697,27.7153998 L7.35980717,34 L11.8683968,34 L11.7944531,33.2575747 L16.8605734,24.4554312 L18.7154539,30.1778891 L24.0863918,30.1778891 L24.0863265,26.5172294 L20.9768641,26.5172294 L20.9768641,21.5120029 L17.7938102,14.9586388 L20.9272332,14.9586388 L22.6024221,17.9463104 L26,18.1308261 L22.2016354,11.8029261 C22.2016354,11.8029261 13.0782712,5.49634237 10,11.8029261 L10.2774066,16.3069166 Z M10.2774066,16.3069166 L11.0224755,15.5907953 L14,22.4729471 L10.9800697,27.7153998 L11.3671463,34 L11.7944531,33.2575747 L10.5548403,20.811348 L10.2774066,16.3069166 Z" id="Path-1" sketch:type="MSShapeGroup"></path>
			            <path id="Path-3" sketch:type="MSShapeGroup" d="M10,11.2125 L11,11.2125"></path>
			        </g>
			    </g>
    			<g id="portal-2" stroke="none" stroke-width="1" fill="none" fill-rule="evenodd" sketch:type="MSPage" transform="translate(550, 370) scale(-1,1)">
			        <ellipse id="Oval-2" stroke="#4990E2" stroke-width="2" fill="#000000" sketch:type="MSShapeGroup" cx="8.5" cy="22" rx="7.5" ry="21"></ellipse>
			        <g id="Oval-1-+-Path-1-+-Path-3" sketch:type="MSLayerGroup" transform="translate(2.000000, 7.000000)" stroke="#979797" fill="#A95D5D">
			            <circle id="Oval-1" sketch:type="MSShapeGroup" cx="10" cy="5" r="5"></circle>
			            <path d="M10.2774066,16.3069166 L7.35980717,19.1111603 L0,19.085213 L0.00927990359,16.1515554 L5.68436276,16.1515554 L9.67725218,12 L10.5548403,20.811348 L10.9800697,27.7153998 L7.35980717,34 L11.8683968,34 L11.7944531,33.2575747 L16.8605734,24.4554312 L18.7154539,30.1778891 L24.0863918,30.1778891 L24.0863265,26.5172294 L20.9768641,26.5172294 L20.9768641,21.5120029 L17.7938102,14.9586388 L20.9272332,14.9586388 L22.6024221,17.9463104 L26,18.1308261 L22.2016354,11.8029261 C22.2016354,11.8029261 13.0782712,5.49634237 10,11.8029261 L10.2774066,16.3069166 Z M10.2774066,16.3069166 L11.0224755,15.5907953 L14,22.4729471 L10.9800697,27.7153998 L11.3671463,34 L11.7944531,33.2575747 L10.5548403,20.811348 L10.2774066,16.3069166 Z" id="Path-1" sketch:type="MSShapeGroup"></path>
			            <path id="Path-3" sketch:type="MSShapeGroup" d="M10,11.2125 L11,11.2125"></path>
			        </g>
			    </g>
			    
		        <g id="bullets"/>
				<g id="sweets"/>
			    <g id="monsters"/>

				<g id="highscoretable"  style = " visibility : hidden" transform="translate(40,40)">
					<rect id="Rectangle-1" stroke="#F8E81C" stroke-width="4" fill="#FFFFFF" sketch:type="MSShapeGroup" x="0" y="0" width="520" height="480" rx="8"></rect>
					<text id="High-Score-Table" fill="#F8E81C" sketch:type="MSTextLayer" font-family="Helvetica Neue" font-size="28" font-weight="normal">
						<tspan x="168" y="44" fill="#F8E81C">High Score Table</tspan>
					</text>
			        <text id="highscoretext" y="55" font-family="Helvetica Neue" style="font-size: 20px;font-weight:bold"/>
			        <g onclick="top.restart()" transform="translate(190,420)">
				        <rect id="Rectangle-1" stroke="#50E3C2" stroke-width="3" fill="#FFFFFF" sketch:type="MSShapeGroup" x="0" y="0" width="140" height="40" rx="8"></rect>
				        <text id="Retry" fill="#50E3C2" sketch:type="MSTextLayer" font-family="Helvetica Neue" font-size="24" font-weight="normal">
				            <tspan x="41" y="28" fill="#50E3C2">Retry</tspan>
				        </text>
					</g>
				</g>
	        <g>
        </g>
    </g>


</g>
</g>
</svg>
